<?xml version="1.0" encoding="UTF-8"?>
<svg width="64px" height="57px" viewBox="0 0 64 57" version="1.1" xmlns="http://www.w3.org/2000/svg" xmlns:xlink="http://www.w3.org/1999/xlink">
    <!-- Generator: Sketch 47 (45396) - http://www.bohemiancoding.com/sketch -->
    <title>banyo</title>
    <desc>Created with Sketch.</desc>
    <defs></defs>
    <g id="proje-detay" stroke="none" stroke-width="1" fill="none" fill-rule="evenodd">
        <g id="1-anasayfa" transform="translate(-342.000000, -1405.000000)" fill-rule="nonzero" fill="#505050">
            <g id="banyo" transform="translate(342.000000, 1405.000000)">
                <path d="M60.2500146,25.9829653 L56.4997793,25.9829653 L56.4997793,6.19512959 C56.4997793,2.77910966 53.6960402,0 50.2500537,0 C46.8038172,0 44.0003281,2.77910966 44.0003281,6.1952535 L44.0003281,7.43450246 L42.750333,7.43450246 C42.0602107,7.43450246 41.5003379,7.98925874 41.5003379,8.67362751 C41.5003379,9.35799627 42.0602107,9.91275255 42.750333,9.91275255 L47.7500635,9.91275255 C48.4404358,9.91275255 49.0000586,9.35799627 49.0000586,8.67362751 C49.0000586,7.98925874 48.4404358,7.43450246 47.7500635,7.43450246 L46.5003184,7.43450246 L46.5003184,6.19512959 C46.5003184,4.14561676 48.1824368,2.47812618 50.2500537,2.47812618 C52.3176706,2.47825009 53.9997891,4.14561676 53.9997891,6.19512959 L53.9997891,25.9829653 L28.7498877,25.9829653 L16.2499365,25.9829653 L3.74973535,25.9829653 C1.68211843,25.9829653 0,27.6505798 0,29.7003404 C0,31.3157878 1.04512092,32.6931992 2.50024023,33.2045861 C2.5082402,36.797677 2.63811469,41.4424133 4.54373225,45.4201286 C6.16235093,48.7989748 8.79659064,51.0975517 12.4069515,52.2988835 L11.5578299,55.4398177 C11.3790806,56.1008909 11.774829,56.7803031 12.4415764,56.957498 C12.549951,56.9862457 12.6588256,57 12.7658251,57 C13.317823,57 13.822946,56.6349538 13.9725704,56.0814366 L14.8288171,52.9144808 C16.1654369,53.1589602 17.6088062,53.2822531 19.1586752,53.2822531 L49.2710575,53.2822531 L50.0274296,56.0811888 C50.176804,56.6348298 50.681927,57 51.2339249,57 C51.3407995,57 51.449799,56.9862457 51.5581736,56.957498 C52.224921,56.780427 52.6209194,56.1010148 52.4421701,55.4399416 L51.8286725,53.1692449 C57.2884012,52.3973939 61.5000098,47.7330794 61.5000098,42.111293 L61.5000098,33.2043382 C62.9548791,32.6928274 64,31.3156638 64,29.7003404 C64,27.6505798 62.3178816,25.9829653 60.2500146,25.9829653 Z M17.4999316,28.4612154 L27.4998926,28.4612154 L27.4998926,37.1647058 C27.4998926,37.8316029 26.9525197,38.3742158 26.2798973,38.3742158 L18.7199269,38.3742158 C18.0473045,38.3742158 17.4999316,37.8316029 17.4999316,37.1647058 L17.4999316,28.4612154 L17.4999316,28.4612154 Z M3.74973535,30.9393416 C3.06048804,30.9393416 2.49999023,30.383594 2.49999023,29.7003404 C2.49999023,29.0170869 3.06048804,28.4612154 3.74973535,28.4612154 L14.9999414,28.4612154 L14.9999414,30.9393416 L3.74973535,30.9393416 Z M59.0000195,35.8955939 L52.0379217,35.8955939 C51.3475494,35.8955939 50.7879266,36.4503502 50.7879266,37.134719 C50.7879266,37.8190877 51.3475494,38.373844 52.0379217,38.373844 L59.0000195,38.373844 L59.0000195,42.1111691 C59.0000195,46.9044765 55.0659099,50.804003 50.2303038,50.804003 L19.1586752,50.804003 C17.3464322,50.804003 15.7206886,50.6245777 14.2734442,50.2654793 C14.2663193,50.2634967 14.2598193,50.2607706 14.2526943,50.258788 C14.2419444,50.255938 14.2309444,50.2544511 14.2201945,50.2518489 C10.7155831,49.3688484 8.2688427,47.4189612 6.80197343,44.3569593 C5.16497982,40.9399481 5.01410541,36.7400577 5.00098046,33.4173438 L14.9999414,33.4173438 L14.9999414,37.164458 C14.9999414,39.1978622 16.6689349,40.852218 18.7199269,40.852218 L26.2798973,40.852218 C28.3311393,40.852218 29.9998828,39.1978622 29.9998828,37.164458 L29.9998828,33.4173438 L59.0000195,33.4173438 L59.0000195,35.8955939 Z M60.2500146,30.9393416 L29.9998828,30.9393416 L29.9998828,28.4612154 L60.2500146,28.4612154 C60.939262,28.4612154 61.5000098,29.0170869 61.5000098,29.7003404 C61.5000098,30.383594 60.939262,30.9393416 60.2500146,30.9393416 Z" id="Shape"></path>
                <path d="M17.8471522,45.6874875 C14.3644472,45.5862897 12.3861102,44.6639448 11.2315455,42.6030965 C10.9172691,42.0424033 10.1955623,41.8354974 9.61964638,42.1414036 C9.04337403,42.4471942 8.8310444,43.1496799 9.14532076,43.7104888 C11.2068312,47.390038 15.0584692,47.9205453 17.7764548,47.9995374 C17.7885744,47.9998843 17.8005751,48 17.8126946,48 C18.4522976,48 18.9804482,47.5046516 18.9994592,46.8779197 C19.0190644,46.2395066 18.5031521,45.7065705 17.8471522,45.6874875 Z" id="Shape"></path>
                <path d="M21.030209,46 L20.969791,46 C20.4341754,46 20,46.4477 20,47 C20,47.5523 20.4341754,48 20.969791,48 L21.030209,48 C21.5658246,48 22,47.5523 22,47 C22,46.4477 21.5658246,46 21.030209,46 Z" id="Shape"></path>
                <path d="M48.023199,36 L47.976801,36 C47.4373138,36 47,36.4477 47,37 C47,37.5523 47.4373138,38 47.976801,38 L48.023199,38 C48.5626862,38 49,37.5523 49,37 C49,36.4477 48.5626862,36 48.023199,36 Z" id="Shape"></path>
            </g>
        </g>
    </g>
</svg>