<?xml version="1.0" encoding="UTF-8"?>
<svg width="65px" height="66px" viewBox="0 0 65 66" version="1.1" xmlns="http://www.w3.org/2000/svg" xmlns:xlink="http://www.w3.org/1999/xlink">
    <!-- Generator: Sketch 47 (45396) - http://www.bohemiancoding.com/sketch -->
    <title>dekorasyon</title>
    <desc>Created with Sketch.</desc>
    <defs></defs>
    <g id="proje-detay" stroke="none" stroke-width="1" fill="none" fill-rule="evenodd">
        <g id="1-anasayfa" transform="translate(-1199.000000, -1401.000000)" fill-rule="nonzero" fill="#505050">
            <g id="dekorasyon" transform="translate(1199.000000, 1401.000000)">
                <path d="M47.6463836,52.729264 L47.6463836,41.8373482 C47.646257,40.2048555 46.3806989,38.8767123 44.8251329,38.8767123 L8.43888248,38.8767123 C6.88331647,38.8767123 5.61763184,40.2048555 5.61763184,41.8373482 L5.61763184,52.729264 C4.4522859,53.1450224 3.61111111,54.3038612 3.61111111,55.6657324 C3.61111111,57.375906 4.93689773,58.7671233 6.56623103,58.7671233 L46.6976579,58.7671233 C48.3271177,58.7671233 49.6527778,57.3757732 49.6527778,55.6657324 C49.6529043,54.3038612 48.8117295,53.1450224 47.6463836,52.729264 Z M7.51495675,41.8372154 C7.51495675,41.3026119 7.92934415,40.867732 8.43888248,40.867732 L44.8251329,40.867732 C45.3345447,40.867732 45.7490587,41.3026119 45.7490587,41.8372154 L45.7490587,52.5643416 L7.51495675,52.5643416 L7.51495675,41.8372154 Z M46.6975313,56.7759709 L6.56635756,56.7759709 C5.98317847,56.7759709 5.50856255,56.277884 5.50856255,55.6657324 C5.50856255,55.0537137 5.98317847,54.5556268 6.56635756,54.5556268 L46.6977844,54.5556268 C47.2809635,54.5556268 47.7555794,55.0537137 47.7555794,55.6657324 C47.7554529,56.277884 47.2809635,56.7759709 46.6975313,56.7759709 Z" id="Shape"></path>
                <path d="M49.3693243,41.5890411 L48.5387964,41.5890411 L48.5387964,43.6009149 L49.3693243,43.6009149 C50.4497626,43.6009149 50.4497626,43.8728767 50.4497626,44.2493568 L50.4497626,57.6940941 C50.4497626,58.6108753 49.8640473,59.6959052 49.3693243,59.6959052 L3.25265691,59.6959052 C2.68835158,59.6959052 1.9109662,58.5360086 1.9109662,57.6940941 C1.9109662,54.0200792 1.9109662,51.264568 1.9109662,49.4275605 C1.9109662,48.2768784 1.9109662,46.5508552 1.9109662,44.2494909 C1.9109662,44.0391129 1.9109662,43.6010491 3.25265691,43.6010491 L4.07681286,43.6010491 L4.07681286,41.5891753 L3.25265691,41.5891753 C2.40275804,41.5891753 1.70349351,41.750313 1.17423425,42.0680267 C0.416984422,42.5225935 0,43.2974232 0,44.2497593 L0,57.6944966 C0,58.5397654 0.330325068,59.507531 0.883670533,60.2830315 C1.52966504,61.1888108 2.39332746,61.7081815 3.25278435,61.7081815 L4.0769403,61.7081815 L4.0769403,66 L5.9879065,66 L5.9879065,61.7079131 L47.5199118,61.7079131 L47.5199118,66 L49.430878,66 L49.430878,61.7054981 C51.3180129,61.6553186 52.3611111,59.3170101 52.3611111,57.6942283 L52.3611111,44.2494909 C52.3607288,43.2558306 51.9720361,41.5890411 49.3693243,41.5890411 Z" id="Shape"></path>
                <rect id="Rectangle-path" x="9.93055556" y="44.3013699" width="2.70833333" height="1.80821918" rx="0.904109589"></rect>
                <rect id="Rectangle-path" x="40.625" y="44.3013699" width="2.70833333" height="1.80821918" rx="0.904109589"></rect>
                <rect id="Rectangle-path" x="26.1805556" y="44.3013699" width="2.70833333" height="1.80821918" rx="0.904109589"></rect>
                <path d="M0.899999976,22.6027397 L30.6972222,22.6027397 L30.6972222,22.6027397 C31.1942785,22.6027397 31.5972222,22.199796 31.5972222,21.7027397 L31.5972222,0.899999976 L31.5972222,0.899999976 C31.5972222,0.402943714 31.1942785,1.45254622e-15 30.6972222,-2.22044605e-16 L0.899999976,0 L0.899999976,-2.22044605e-16 C0.402943714,-1.30736851e-16 -2.82916441e-16,0.402943714 -2.22044605e-16,0.899999976 L0,21.7027397 L-2.22044605e-16,21.7027397 C1.82546313e-15,22.199796 0.402943714,22.6027397 0.899999976,22.6027397 Z M1.93434479,1.95259815 L29.6628774,1.95259815 L29.6628774,20.6501416 L1.93434479,20.6501416 L1.93434479,1.95259815 Z" id="Shape"></path>
                <path d="M32.5,24.4068493 L32.5,37.0726028 L32.5,37.0726028 C32.5,37.569659 32.9029437,37.9726027 33.4,37.9726027 L49.6555556,37.9726027 L49.6555556,37.9726027 C50.1526118,37.9726027 50.5555556,37.569659 50.5555556,37.0726028 L50.5555556,24.4068493 L50.5555556,24.4068493 C50.5555556,23.909793 50.1526118,23.5068493 49.6555556,23.5068493 L33.4,23.5068493 L33.4,23.5068493 C32.9029437,23.5068493 32.5,23.909793 32.5,24.4068493 Z M48.6470596,36.0032535 L34.408496,36.0032535 L34.408496,25.4761986 L48.6470596,25.4761986 L48.6470596,36.0032535 Z" id="Shape"></path>
                <path d="M41.5277778,4.52054795 C37.0474918,4.52054795 33.4027778,8.37355789 33.4027778,13.109589 C33.4027778,17.8457565 37.0476207,21.6986301 41.5277778,21.6986301 C46.0079348,21.6986301 49.6527778,17.8454839 49.6527778,13.109589 C49.6529067,8.37355789 46.0080638,4.52054795 41.5277778,4.52054795 Z M42.4945085,19.5743077 L42.4945085,19.4488049 L42.4945085,19.4488049 C42.4945085,18.9147875 42.0616018,18.4818808 41.5275843,18.4818808 L41.5275843,18.4818808 L41.5275843,18.4818808 C40.9935669,18.4818808 40.5606602,18.9147875 40.5606602,19.4488049 L40.5606602,19.5741714 C37.9595408,19.1409088 35.8928573,16.9891837 35.4337376,14.2569577 L35.5417814,14.2569577 L35.5417814,14.2569577 C36.1063357,14.2569577 36.5639974,13.799296 36.5639974,13.2347417 L36.5639974,13.2347417 L36.5639974,13.2347417 C36.5639974,12.6701873 36.1063357,12.2125257 35.5417814,12.2125257 L35.3960795,12.2125257 C35.7676311,9.36209993 37.8806134,7.09149344 40.5606602,6.64514305 L40.5606602,7.15687386 L40.5606602,7.15687386 C40.5606602,7.69089131 40.9935669,8.12379799 41.5275843,8.12379799 L41.5275843,8.12379799 L41.5275843,8.12379799 C42.0616018,8.12379799 42.4945085,7.69089131 42.4945085,7.15687386 L42.4945085,6.64527939 C45.1746842,7.09149344 47.2879244,9.36223626 47.6593471,12.212662 L47.3843528,12.212662 L47.3843528,12.212662 C46.8198362,12.212662 46.362205,12.6702932 46.362205,13.2348098 L46.362205,13.2348098 L46.362205,13.2348098 C46.362205,13.7993265 46.8198362,14.2569577 47.3843528,14.2569577 L47.621818,14.2569577 C47.1626983,16.98932 45.0958858,19.1411815 42.4945085,19.5743077 Z" id="Shape"></path>
                <path d="M41.0764002,11.5263928 L41.0764002,11.8356164 L41.0764002,11.8356164 C41.0764002,12.3803356 40.634818,12.8219178 40.0900988,12.8219178 L39.6413623,12.8219178 L39.6413623,12.8219178 C39.1874296,12.8219178 38.8194444,13.1899029 38.8194444,13.6438356 L38.8194444,13.6438356 L38.8194444,13.6438356 C38.8194444,14.0977683 39.1874296,14.4657534 39.6413623,14.4657534 L40.625,14.4657534 L40.625,14.4657534 C41.6221808,14.4657534 42.4305556,13.6573787 42.4305556,12.6601979 L42.4305556,11.5263928 L42.4305556,11.5263928 C42.4305556,11.1524531 42.1274175,10.8493151 41.7534779,10.8493151 L41.7534779,10.8493151 L41.7534779,10.8493151 C41.3795382,10.8493151 41.0764002,11.1524531 41.0764002,11.5263928 Z" id="Shape"></path>
                <path d="M60.0850383,38.8767123 L58.2185577,38.8767123 L58.2185577,61.1179769 L54.1638889,61.1179769 L54.1638889,61.1179769 C53.6668326,61.1179769 53.2638889,61.5209206 53.2638889,62.0179769 L53.2638889,65.1 L53.2638889,65.1 C53.2638889,65.5970563 53.6668326,66 54.1638889,66 L64.1,66 L64.1,66 C64.5970563,66 65,65.5970563 65,65.1 L65,62.0179769 L65,62.0179769 C65,61.5209206 64.5970563,61.1179769 64.1,61.1179769 L60.0850383,61.1179769 L60.0850383,38.8767123 Z M63.1336439,64.1124992 L55.1304939,64.1124992 L55.1304939,63.0057294 L63.1336439,63.0057294 L63.1336439,64.1124992 Z" id="Shape"></path>
                <path d="M55.0694444,14.4616438 L55.0694444,36.286936 L55.0694444,36.286936 C55.0694444,36.7839922 55.4723882,37.186936 55.9694444,37.186936 L58.1789418,37.186936 L58.1789418,38.8767123 L60.126111,38.8767123 L60.126111,37.1870721 L62.2944445,37.1870721 L62.2944445,37.1870721 C62.7915007,37.1870721 63.1944444,36.7841284 63.1944444,36.2870721 L63.1944444,14.4616438 L63.1944444,14.4616438 C63.1944444,13.9645876 62.7915007,13.5616438 62.2944445,13.5616438 L55.9694444,13.5616438 L55.9694444,13.5616438 C55.4723882,13.5616438 55.0694444,13.9645876 55.0694444,14.4616438 Z M60.3474052,31.9375365 L59.0790716,31.9375365 L59.0790716,31.9375365 C58.5820154,31.9375365 58.1790717,32.3404802 58.1790717,32.8375364 L58.1790717,33.0784706 L58.1790717,33.0784706 C58.1790717,33.5755268 58.5820154,33.9784705 59.0790716,33.9784705 L60.6635714,33.9784705 L60.6635714,33.9784705 C60.9860139,33.9784705 61.2474051,34.2398618 61.2474051,34.5623043 L61.2474051,34.5623043 L61.2474051,34.5623043 C61.2474051,34.8847467 60.9860139,35.146138 60.6635714,35.146138 L57.9167434,35.146138 L57.9167434,35.146138 C57.4196872,35.146138 57.0167435,34.7431943 57.0167435,34.246138 L57.0167435,16.5025779 L57.0167435,16.5025779 C57.0167435,16.0055216 57.4196872,15.6025779 57.9167434,15.6025779 L60.3474052,15.6025779 L60.3474052,15.6025779 C60.8444614,15.6025779 61.2474051,16.0055216 61.2474051,16.5025779 L61.2474051,31.0375365 L61.2474051,31.0375365 C61.2474051,31.5345927 60.8444614,31.9375365 60.3474052,31.9375365 Z" id="Shape"></path>
                <rect id="Rectangle-path" transform="translate(13.541667, 9.041096) rotate(-45.000000) translate(-13.541667, -9.041096) " x="11.7361111" y="8.1369863" width="3.61111111" height="1.80821918" rx="0.904109589"></rect>
                <rect id="Rectangle-path" transform="translate(16.701389, 9.945205) rotate(-45.000000) translate(-16.701389, -9.945205) " x="11.7361111" y="9.04109589" width="9.93055556" height="1.80821918" rx="0.904109589"></rect>
                <rect id="Rectangle-path" transform="translate(18.958333, 13.561644) rotate(-45.000000) translate(-18.958333, -13.561644) " x="17.1527778" y="12.6575342" width="3.61111111" height="1.80821918" rx="0.904109589"></rect>
            </g>
        </g>
    </g>
</svg>