<?xml version="1.0" encoding="UTF-8"?>
<svg width="43px" height="65px" viewBox="0 0 43 65" version="1.1" xmlns="http://www.w3.org/2000/svg" xmlns:xlink="http://www.w3.org/1999/xlink">
    <!-- Generator: Sketch 47 (45396) - http://www.bohemiancoding.com/sketch -->
    <title>ic-kapi</title>
    <desc>Created with Sketch.</desc>
    <defs></defs>
    <g id="proje-detay" stroke="none" stroke-width="1" fill="none" fill-rule="evenodd">
        <g id="1-anasayfa" transform="translate(-519.000000, -1400.000000)" fill-rule="nonzero" fill="#505050">
            <g id="ic-kapi" transform="translate(519.000000, 1400.000000)">
                <path d="M18.892784,34 L15.107216,34 C14.4956336,34 14,34.4477527 14,35 C14,35.5522473 14.4956336,36 15.107216,36 L18.892784,36 C19.5044917,36 20,35.5522473 20,35 C20,34.4477527 19.5043664,34 18.892784,34 Z" id="Shape"></path>
                <path d="M41.8608442,3.25573502 L25.0525249,3.25573502 L25.0525249,1.12140423 C25.0525249,0.773045697 24.8879272,0.44436485 24.6072339,0.232226691 C24.3262825,0.0199615782 23.9613554,-0.0520206699 23.6193894,0.0379888784 L0.845820857,6.01480062 C0.346996813,6.14568898 3.66626119e-15,6.59027775 3.66626119e-15,7.09834293 L3.66626119e-15,10.7204338 C3.66626119e-15,11.3397096 0.510046617,11.841808 1.1394137,11.841808 C1.76878078,11.841808 2.2788274,11.3397096 2.2788274,10.7204338 L2.2788274,7.9599717 L22.7735686,2.58110774 L22.7735686,62.5105822 L2.2788274,58.4765294 L2.2788274,14.5000731 C2.2788274,13.8807973 1.76878078,13.3786989 1.1394137,13.3786989 C0.510046617,13.3786989 0,13.8807973 0,14.5000731 L0,59.3959217 C0,59.9305201 0.383244436,60.390724 0.91599419,60.4954601 L23.6895627,64.9781641 C23.7637349,64.9927637 23.8384231,65 23.9129823,65 C24.1741973,65 24.4298656,64.9116408 24.6353548,64.7458405 C24.8992788,64.5328136 25.052396,64.2145429 25.052396,63.8786258 L25.052396,61.7445489 L35.5532419,61.7445489 C36.182738,61.7445489 36.6926556,61.2424505 36.6926556,60.6231746 C36.6926556,60.0038988 36.182609,59.5018004 35.5532419,59.5018004 L25.052396,59.5018004 L25.052396,56.3022085 L36.3305664,56.3022085 C36.9600624,56.3022085 37.4699801,55.8001101 37.4699801,55.1808343 L37.4699801,9.81957659 C37.4699801,9.20030074 36.9599334,8.69820234 36.3305664,8.69820234 L25.052396,8.69820234 L25.052396,5.49848351 L40.7211725,5.49848351 L40.7211725,59.5012926 L39.0955763,59.5012926 C38.4660802,59.5012926 37.9561626,60.003391 37.9561626,60.6226668 C37.9561626,61.2419427 38.4662092,61.7440411 39.0955763,61.7440411 L41.8605862,61.7440411 C42.4900823,61.7440411 42.9999999,61.2419427 42.9999999,60.6226668 L42.9999999,4.37710926 C43.0002579,3.75783341 42.4900823,3.25573502 41.8608442,3.25573502 Z M35.1912817,10.9409508 L35.1912817,54.0590792 L25.0526539,54.0590792 L25.0526539,10.9409508 L35.1912817,10.9409508 Z" id="Shape"></path>
            </g>
        </g>
    </g>
</svg>