<?xml version="1.0" encoding="UTF-8"?>
<svg width="58px" height="61px" viewBox="0 0 58 61" version="1.1" xmlns="http://www.w3.org/2000/svg" xmlns:xlink="http://www.w3.org/1999/xlink">
    <!-- Generator: Sketch 47 (45396) - http://www.bohemiancoding.com/sketch -->
    <title>celik-kapi</title>
    <desc>Created with Sketch.</desc>
    <defs></defs>
    <g id="proje-detay" stroke="none" stroke-width="1" fill="none" fill-rule="evenodd">
        <g id="1-anasayfa" transform="translate(-678.000000, -1402.000000)" fill-rule="nonzero" fill="#505050">
            <g id="celik-kapi" transform="translate(678.000000, 1402.000000)">
                <path d="M56.9643247,58.966627 L50.7500303,58.966627 L50.7500303,1.01662695 C50.7500303,0.406626953 50.3357845,0 49.7143551,0 L8.28564493,0 C7.66421549,-1.05818132e-16 7.24996966,0.406626953 7.24996966,1.01662695 L7.24996966,58.966627 L1.03567527,58.966627 C0.414245835,58.966627 0,59.3732539 0,59.9832539 C0,60.5932539 0.414245835,61 1.03567527,61 L8.28564493,61 L12.4284674,61 L45.5714112,61 L49.7142337,61 L56.9643247,61 C57.5857542,61 58,60.593373 58,59.983373 C58,59.373373 57.5857542,58.966627 56.9643247,58.966627 Z M13.464264,58.966627 L13.464264,6.1 L44.535736,6.1 L44.535736,58.966627 L13.464264,58.966627 Z M46.6072079,58.966627 L46.6072079,5.08337305 C46.6072079,4.47337305 46.192962,4.06674609 45.5715326,4.06674609 L12.4285888,4.06674609 C11.8071593,4.06674609 11.3929135,4.47337305 11.3929135,5.08337305 L11.3929135,58.9667461 L9.32144158,58.9667461 L9.32144158,2.03337305 L48.6786798,2.03337305 L48.6786798,58.9667461 L46.6072079,58.9667461 L46.6072079,58.966627 Z" id="Shape"></path>
                <path d="M42.8889178,28 L38.4444589,28 C37.7777836,28 37.3333767,28.3999766 37.3333767,29 L37.3333767,30 L35.1110822,30 C34.4444068,30 34,30.3999766 34,31 C34,31.6000234 34.4444068,32 35.1110822,32 L37.3333767,32 L37.3333767,33 C37.3333767,33.6000234 37.7777836,34 38.4444589,34 L42.8889178,34 C43.5555932,34 44,33.6000234 44,33 L44,29 C44,28.3999766 43.5555932,28 42.8889178,28 Z M41.7778356,32.0001172 L39.5555411,32.0001172 L39.5555411,30 L41.7778356,30 L41.7778356,32.0001172 Z" id="Shape"></path>
            </g>
        </g>
    </g>
</svg>