<?xml version="1.0" encoding="UTF-8"?>
<svg width="62px" height="60px" viewBox="0 0 62 60" version="1.1" xmlns="http://www.w3.org/2000/svg" xmlns:xlink="http://www.w3.org/1999/xlink">
    <!-- Generator: Sketch 47 (45396) - http://www.bohemiancoding.com/sketch -->
    <title>yangina-dayanikli-kapi</title>
    <desc>Created with Sketch.</desc>
    <defs></defs>
    <g id="proje-detay" stroke="none" stroke-width="1" fill="none" fill-rule="evenodd">
        <g id="1-anasayfa" transform="translate(-856.000000, -1403.000000)">
            <g id="yangina-dayanikli-kapi" transform="translate(856.000000, 1403.000000)">
                <g id="Group-14" fill-rule="nonzero" fill="#505050">
                    <path d="M51.6666667,54.9152542 L51.6666667,1.01694915 C51.6573667,0.919322034 51.6470333,0.870508475 51.6367,0.820677966 C51.5943333,0.657966102 51.5943333,0.641694915 51.5881333,0.627457627 C51.5127,0.499322034 51.4879,0.454576271 51.4569,0.412881356 C51.3225667,0.269491525 51.2874333,0.235932203 51.2471333,0.206440678 C51.0838667,0.111864407 51.0601,0.0905084746 51.0291,0.0772881356 C50.9340333,0.0488135593 50.8854667,0.0396610169 50.8348333,0.0294915254 C50.6633,0.00610169492 50.6488333,0 50.6333333,0 L11.3666667,0 C11.2674667,0.00915254237 11.2158,0.0193220339 11.1631,0.0305084746 C11.0029333,0.0711864407 10.9864,0.0711864407 10.9709,0.0772881356 C10.8407,0.151525424 10.7952333,0.175932203 10.7528667,0.206440678 C10.6071667,0.338644068 10.5730667,0.373220339 10.5431,0.412881356 C10.447,0.573559322 10.4253,0.596949153 10.4118667,0.627457627 C10.3829333,0.721016949 10.3736333,0.769830508 10.3633,0.820677966 C10.3395333,0.985423729 10.3333333,1.00067797 10.3333333,1.01694915 L10.3333333,54.9152542 L0,54.9152542 L0,60 L11.3666667,60 L12.4,60 L13.4333333,60 L14.4666667,60 L47.5333333,60 L48.5666667,60 L49.6,60 L50.6333333,60 L62,60 L62,54.9152542 L51.6666667,54.9152542 Z M48.1388667,2.03389831 L47.1055333,3.05084746 L14.8944667,3.05084746 L13.8611333,2.03389831 L48.1388667,2.03389831 Z M2.06666667,56.9491525 L10.3333333,56.9491525 L10.3333333,57.9661017 L2.06666667,57.9661017 L2.06666667,56.9491525 Z M13.4333333,57.9661017 L12.4,57.9661017 L12.4,54.9152542 L12.4,3.47186441 L13.4333333,4.48881356 L13.4333333,57.9661017 Z M15.5,5.08474576 L46.5,5.08474576 L46.5,57.9661017 L15.5,57.9661017 L15.5,5.08474576 Z M49.6,57.9661017 L48.5666667,57.9661017 L48.5666667,4.48881356 L49.6,3.47186441 L49.6,54.9152542 L49.6,57.9661017 Z M59.9333333,57.9661017 L51.6666667,57.9661017 L51.6666667,56.9491525 L59.9333333,56.9491525 L59.9333333,57.9661017 Z" id="Shape"></path>
                    <path d="M43,8 L19,8 L19,18 L43,18 L43,8 Z M41,16 L21,16 L21,10 L41,10 L41,16 Z" id="Shape"></path>
                    <path d="M19,55 L43,55 L43,45 L19,45 L19,55 Z M21,47 L41,47 L41,53 L21,53 L21,47 Z" id="Shape"></path>
                    <path d="M38,33 L19,33 L19,43 L43,43 L41.2015602,35.9951307 L38,34 L38,33 Z M41,36 L41,41 L21,41 L21,35 L36,35 L36,36 L41,36 Z" id="Shape"></path>
                    <path d="M38,30 L43,30 L43,21 L19,21 L19,31 L38,31 L38,30 Z M36,29 L21,29 L21,23 L41,23 L41,28 L36,28 L36,29 Z" id="Shape"></path>
                </g>
                <path d="M36.916048,59 C33.027984,50.2232825 33.027984,42.970839 36.916048,37.2426695 C42.748144,28.6504153 39.1517036,33.6887867 41.4306396,37.2426695 C43.7095755,40.7965523 48.683356,32.3866267 46.582272,27.1315095 C44.4811881,21.8763924 64.8883249,35.3356658 55.5312105,59 L36.916048,59 Z" id="Path-6" stroke="#505050" stroke-width="2" fill="#FFFFFF"></path>
                <path d="M41.8216284,58 C40.5270483,55.3236673 40.7623,52.6641983 42.5273834,50.0215932 C44.2924668,47.3789881 45.1750085,45.4218742 45.1750085,44.1502516 C44.5034093,42.0322952 45.363466,42.8391811 47.7551786,46.5709093 C51.3427476,52.1685017 51.8813959,55.3085798 49.7371273,58 L41.8216284,58 Z" id="Path-7" stroke="#505050" stroke-width="2"></path>
            </g>
        </g>
    </g>
</svg>