<?xml version="1.0" encoding="UTF-8"?>
<svg width="62px" height="67px" viewBox="0 0 62 67" version="1.1" xmlns="http://www.w3.org/2000/svg" xmlns:xlink="http://www.w3.org/1999/xlink">
    <!-- Generator: Sketch 47 (45396) - http://www.bohemiancoding.com/sketch -->
    <title>vestiyer</title>
    <desc>Created with Sketch.</desc>
    <defs></defs>
    <g id="proje-detay" stroke="none" stroke-width="1" fill="none" fill-rule="evenodd">
        <g id="1-anasayfa" transform="translate(-1034.000000, -1401.000000)" fill-rule="nonzero" fill="#505050">
            <g id="vestiyer" transform="translate(1034.000000, 1401.000000)">
                <path d="M8.56042965,25.4395556 C8.2124877,25.0899005 7.69494096,24.9307651 7.20752706,25.0282402 C7.11147097,25.0479321 7.01701378,25.0762393 6.92698426,25.113777 C6.83547885,25.1513148 6.74852411,25.1979601 6.66747294,25.2518668 C6.58494588,25.3073734 6.50844539,25.3703876 6.43944736,25.4394325 C6.16050344,25.7185657 6,26.1042816 6,26.5005819 C6,26.598057 6.01045425,26.6972551 6.03000984,26.7932533 C6.04956543,26.8893746 6.07797639,26.9838959 6.11548868,27.0739865 C6.15300098,27.1640772 6.19949164,27.2524447 6.25348475,27.3335509 C6.30747786,27.416134 6.37044933,27.4926864 6.43944736,27.5618543 C6.50844539,27.6308992 6.58494588,27.6939134 6.66747294,27.7478201 C6.74852411,27.8018499 6.83547885,27.8483721 6.92698426,27.8859098 C7.01701378,27.9234476 7.11147097,27.9520009 7.20752706,27.9714467 C7.30346015,27.9910156 7.40246802,28 7.5,28 C7.59753198,28 7.69653985,27.9908925 7.79394884,27.9714467 C7.88840603,27.9518778 7.98298622,27.9234476 8.07449164,27.8859098 C8.16452115,27.8483721 8.25147589,27.8018499 8.33252706,27.7478201 C8.41505412,27.6939134 8.49155461,27.6308992 8.56055264,27.5618543 C8.62955067,27.4926864 8.69252214,27.416134 8.74799114,27.3335509 C8.80198426,27.2524447 8.84847491,27.1639541 8.88598721,27.0739865 C8.92349951,26.9837728 8.95203345,26.8893746 8.97146605,26.7932533 C8.99102165,26.697009 9,26.5979339 9,26.5005819 C8.99987701,26.1042816 8.83937357,25.7186888 8.56042965,25.4395556 Z" id="Shape"></path>
                <path d="M61.999732,29.0109361 C61.999732,28.3228408 61.5693927,27.7083552 60.9229459,27.4738504 L37.6389354,19.0210859 C37.5706063,18.9906499 37.4998656,18.9650407 37.4269812,18.9441244 L32.1522429,17.0292031 L32.1522429,12.4137896 C32.1522429,11.5108993 31.4207196,10.7786919 30.5183736,10.7786919 C28.1127875,10.7786919 26.1558958,8.82019488 26.1558958,6.41293423 C26.1558958,4.00567357 28.1129215,2.04731059 30.5183736,2.04731059 C32.9238258,2.04731059 34.8808515,4.00580765 34.8808515,6.41293423 C34.8808515,7.31582457 35.2047614,7.95921434 36.1071074,7.95921434 C37.0094535,7.95921434 37.5071986,7.31162469 37.4269812,6.41293423 C37.0996946,2.74628078 34.4498075,-0.0672674727 30.5183736,0.00122420403 C26.5869398,0.0697158807 24.2057949,2.20244039 24.2057949,6.41293423 C24.2057949,10.0621719 26.1056357,12.3336306 29.5303972,13.084475 L29.5303972,17.0292031 L10.8998842,23.3231559 C10.0483161,23.6218847 9.53771222,24.1086174 9.83621659,24.9610939 C10.134721,25.8133022 10.6875712,25.7054778 11.5390054,25.4071513 L30.5183736,19.0210859 L35.3424078,20.7278407 L35.3424078,30.511284 L31,33.4999146 L2.25183221,33.4999146 L2.25183221,29.3186482 C2.25183221,28.4157578 2.16305689,27.6532186 1.15516367,27.6835505 C0.252817657,27.6835505 0,28.4157578 0,29.3186482 L0,34.2756958 C0,34.2760534 0,36.9624862 0,42.3349942 C0,42.7686068 0.172162527,43.184655 0.478705611,43.4914286 C0.785114717,43.798068 1.52977304,43.9865836 1.9630599,43.9865836 C1.96314922,43.9865836 9.0991793,43.9845724 23.3711501,43.98055 L23.4277664,65.3649023 C23.4277664,66.2677927 24.1592897,67 25.0616357,67 L48.1959869,67 C49.0983329,67 49.8298562,66.2677927 49.8298562,65.3649023 L49.7732399,44.7804107 L60.3663987,44.7777291 C61.2686107,44.7774609 62,44.0453877 62,43.1426314 L62,34.2756958 C61.9999107,34.2752489 61.9998214,32.520329 61.999732,29.0109361 Z M24.0843183,38.1945671 C23.6380355,38.4991953 23.3710162,39.0048086 23.3710162,39.5455506 L23.3710162,41.5175897 L2.25169823,41.5230869 L2.25169823,35.9107935 L27.4308363,35.9107935 L24.0843183,38.1945671 Z M25.8308585,64.424689 L25.8308585,60.8747568 L37.9575365,60.8747568 C38.8598825,60.8747568 39.5914058,60.3991801 39.5914058,59.4962897 C39.5914058,58.5933994 38.8598825,58.130602 37.9575365,58.130602 L25.8308585,58.130602 L25.8308585,43.152151 L25.8308585,40.409692 L36.1446117,33.0020417 L40.1585373,35.5266562 C40.2440157,35.5986568 40.3365949,35.6623445 40.4356051,35.715708 L47.3131296,40.409692 L47.3131296,43.1457152 L47.3132636,64.155279 L25.8308585,64.424689 Z M58.5197905,42.5717193 L49.867834,42.5717193 L49.867834,40.0857209 C49.867834,39.5449788 49.5439957,38.3751155 49.0977129,38.0702191 L43.8743467,34.9333721 L59.9758468,34.9333721 L59.9758468,42.5717193 L58.5197905,42.5717193 Z M60.0704036,32.6404641 L40.8919564,32.6404641 L37.7069474,30.5152048 L37.7069474,22.929473 L37.7069474,21.5718149 L60.0704036,29.5453187 L60.0704036,32.6404641 Z" id="Shape"></path>
                <path d="M36.5,37 C34.5700415,37 33,38.5699969 33,40.4999006 C33,42.4298044 34.5701408,44 36.5,44 C38.4298592,44 40,42.4299038 40,40.4999006 C40,38.5698975 38.4298592,37 36.5,37 Z M36.5,41.9349904 C35.7086196,41.9349904 35.0648364,41.2912254 35.0648364,40.499735 C35.0648364,39.7085096 35.7086196,39.0646121 36.5,39.0646121 C37.2913804,39.0646121 37.9351636,39.7083771 37.9351636,40.499735 C37.9351636,41.2912254 37.2912479,41.9349904 36.5,41.9349904 Z" id="Shape"></path>
                <path d="M44.5607624,58.438567 C44.4917587,58.3695817 44.4152519,58.3066219 44.3327181,58.2526387 C44.2516603,58.1987785 44.1646984,58.1521735 44.0731855,58.1146681 C43.9831486,58.0771627 43.8886837,58.04888 43.7926198,58.029328 C43.5991388,57.990224 43.3996309,57.990224 43.2061499,58.029328 C43.111685,58.04888 43.0170971,58.0771627 42.9255842,58.1146681 C42.8355473,58.1521735 42.7485854,58.1987785 42.6675276,58.2526387 C42.5849938,58.3066219 42.508487,58.3695817 42.4394834,58.438567 C42.1589176,58.7189351 42,59.1044412 42,59.4988011 C42,59.5977907 42.0089791,59.6953047 42.0285363,59.7926957 C42.0479705,59.8886111 42.0765068,59.9830508 42.1140221,60.0731867 C42.1515375,60.1631996 42.198032,60.2501383 42.2520295,60.3325272 C42.307503,60.4135634 42.3704797,60.4901728 42.4394834,60.5606337 C42.7184501,60.8394032 43.105535,61 43.4999999,61 C43.8944648,61 44.2815496,60.8395262 44.5605164,60.5606337 C44.62952,60.4901728 44.6924967,60.4136864 44.7464942,60.3325272 C44.8004917,60.2500154 44.8469862,60.1630767 44.8845016,60.0731867 C44.9220169,59.9830508 44.9505532,59.888734 44.9699874,59.7926957 C44.9895446,59.6951817 44.9999997,59.5977907 44.9999997,59.4988011 C45.0002457,59.1043182 44.8397291,58.7189351 44.5607624,58.438567 Z" id="Shape"></path>
            </g>
        </g>
    </g>
</svg>