<svg viewBox="0 0 211 25" xmlns="http://www.w3.org/2000/svg"><title>Group 45</title><defs><linearGradient x1="0%" y1="50%" y2="50%" id="a"><stop stop-color="#005BAA" offset="5%"/><stop stop-color="#FFF" offset="50%"/><stop stop-color="#005BAA" offset="100%"/></linearGradient></defs><g fill="none"><path d="M18.745.91L32 24.974h-8.55L16.515 12.52v8.14s.258 4.427-4.162 4.34H.01L0 8.246s2.44 8.967 12.736 5.823c-.495.09-1.04.16-1.6.16-4.017 0-7.274-3.19-7.274-7.12S7.12 0 11.136 0c4.017 0 7.274 3.185 7.274 7.115 0 1.42-.425 2.74-1.157 3.85C21.348 7.325 18.745.91 18.745.91z" fill="#274E81"/><path d="M49.455 15.92c1.432 0 2.357-.26 2.774-.777.35-.408.53-1.225.53-2.45 0-1.25-.13-2.067-.39-2.448-.42-.64-1.4-.96-2.93-.96-1.59 0-2.58.307-2.96.92-.18.3-.27 1.128-.27 2.49 0 1.183.13 1.96.39 2.325.42.6 1.36.9 2.83.9h.026zm-8.736 4.447h5.933c0 .626.26 1.048.776 1.265.377.177 1.053.265 2.027.265 1.333 0 2.21-.128 2.626-.387.44-.26.657-.837.657-1.735V17.06h-.24c-.692 1.43-2.42 2.144-5.185 2.144-3.082 0-5.16-.62-6.234-1.857-.734-.884-1.102-2.435-1.102-4.653 0-2.395.4-4.04 1.193-4.94C42.248 6.587 44.298 6 47.34 6c1.49 0 2.644.163 3.46.49.954.38 1.61 1.034 1.968 1.96h.21l-.21-2.307H59v12.49c0 2.45-.656 4.122-1.97 5.02C55.74 24.55 53.294 25 49.695 25c-3.52 0-5.817-.26-6.89-.776-1.273-.585-1.958-1.87-2.058-3.857h-.028zM72.657 4.05h5.85V1h-5.85v3.05zm-8.104 0H70.4V1h-5.847v3.05zm7.036 4.855c-1.65 0-2.67.32-3.06.962-.2.314-.3 1.133-.3 2.457 0 1.297.1 2.103.29 2.417.39.65 1.41.97 3.06.97 1.56 0 2.53-.3 2.91-.92.19-.32.29-1.14.29-2.45 0-1.32-.1-2.15-.3-2.48-.38-.63-1.35-.94-2.91-.94l.02-.016zm-.09-3.298c3.94 0 6.5.437 7.69 1.31 1.2.86 1.81 2.663 1.81 5.407 0 2.676-.61 4.458-1.81 5.345-1.27.88-3.83 1.33-7.69 1.33-3.8 0-6.34-.45-7.6-1.35-1.27-.92-1.9-2.69-1.9-5.33 0-2.69.61-4.48 1.84-5.37 1.22-.9 3.78-1.35 7.66-1.35v.008zm22.8 6.14v-.603c0-.643-.06-1.08-.18-1.306-.22-.402-.71-.603-1.45-.603-1.59 0-2.38.683-2.38 2.05V19H84V6.14h6.117v1.89h.27C91.172 6.675 92.787 6 95.24 6c1.987 0 3.334.496 4.037 1.487.482.683.723 1.768.723 3.255v1.004h-5.695l-.006.001zM108.47 0v8.17h.278c.433-.984 1.15-1.677 2.16-2.08.885-.36 2.13-.54 3.733-.54 4.24 0 6.36 1.42 6.36 4.262V19h-6.48v-8.19c0-.68-.19-1.165-.58-1.456-.37-.305-1.06-.457-2.064-.457-1.314 0-2.23.256-2.743.77-.43.415-.647 1.087-.647 2.016V19H102V0h6.477-.007zm28.17 18.86l.212-1.887h-.22c-.385 1.35-2.25 2.027-5.594 2.027-2.43 0-4.163-.25-5.197-.755-1.23-.596-1.85-1.656-1.85-3.18 0-1.498.63-2.558 1.88-3.18 1.1-.558 2.82-.836 5.17-.836 1.4 0 2.43.06 3.07.17 1.18.21 1.92.63 2.22 1.25h.31v-2c0-.69-.14-1.16-.422-1.4-.387-.36-1.207-.54-2.464-.54-1.74 0-2.61.453-2.61 1.37h-6.354c0-1.75.92-2.898 2.766-3.44 1.114-.32 3.18-.48 6.2-.48 3.507 0 5.86.27 7.054.814 1.46.68 2.19 2.04 2.19 4.097v7.95h-6.356l-.005.02zm-3.55-5.547c-2.034 0-3.05.537-3.05 1.612 0 1.092 1.016 1.637 3.05 1.637 1.387 0 2.293-.07 2.717-.213.76-.24 1.14-.79 1.14-1.64 0-.59-.358-.98-1.073-1.19-.463-.14-1.39-.22-2.78-.22l-.004.014zM147 6.14h6.477v2.392h.278c.432-.95 1.15-1.62 2.16-2.01.884-.348 2.127-.522 3.73-.522C163.883 6 166 7.373 166 10.12V19h-6.477v-7.916c0-.657-.196-1.125-.586-1.407-.37-.295-1.06-.442-2.067-.442-1.316 0-2.23.248-2.745.743-.432.403-.648 1.052-.648 1.95V19H147V6.14z" fill="#373B40"/><g transform="translate(174)"><path fill="#005BAA" d="M25.661 17.932l-2.63-4.703h2.23l1.455 2.793 1.412-2.793h2.208l-4.374 8.165h-2.158zm7.197-4.702v5.445h-1.87V13.23zm3.245-3.367v8.812h-1.87V9.863z"/><circle fill="#005BAA" cx="20.964" cy="17.841" r="1.665"/><path d="M34.238 20.347v1.783a.957.957 0 0 1-.956.956H2.821a.957.957 0 0 1-.956-.956V2.82c0-.527.428-.954.956-.955h30.461c.528 0 .956.428.956.956v5.36h1.865V2.82A2.824 2.824 0 0 0 33.283 0H2.82A2.824 2.824 0 0 0 0 2.82v19.31a2.824 2.824 0 0 0 2.82 2.82h30.462a2.824 2.824 0 0 0 2.821-2.82v-1.783h-1.865z" fill="url(#a)"/><path d="M7.689 11.062h.677c.668 0 1.186-.19 1.554-.573.366-.365.549-.843.549-1.434-.013-.595-.203-1.083-.571-1.464-.365-.37-.839-.56-1.422-.573a1.77 1.77 0 0 0-1.14.417c-.363.278-.606.708-.73 1.29H4.651a4.156 4.156 0 0 1 1.224-2.632A3.507 3.507 0 0 1 8.399 5.01c1.24.013 2.224.421 2.952 1.225a4.122 4.122 0 0 1 1.066 2.78 4.317 4.317 0 0 1-.289 1.564c-.225.501-.627.948-1.206 1.34a3.51 3.51 0 0 1 1.28 1.39c.249.53.377 1.11.376 1.697-.013 1.318-.406 2.357-1.181 3.116-.766.778-1.75 1.174-2.953 1.187a3.67 3.67 0 0 1-2.46-.924c-.717-.616-1.18-1.509-1.392-2.677h1.95c.15.434.403.826.738 1.141.324.304.753.455 1.289.455a1.933 1.933 0 0 0 1.449-.61c.399-.38.604-.921.617-1.624-.013-.716-.218-1.27-.617-1.664-.394-.38-.892-.57-1.495-.57h-.834v-1.774zm6.052-5.934h7.745v2.006l-4.611 12.059H14.7l4.6-12.06h-3.612v2.04h-1.947z" fill="#005BAA"/></g></g></svg>