<?xml version="1.0" encoding="UTF-8"?>
<svg width="74px" height="49px" viewBox="0 0 74 49" version="1.1" xmlns="http://www.w3.org/2000/svg" xmlns:xlink="http://www.w3.org/1999/xlink">
    <!-- Generator: Sketch 47 (45396) - http://www.bohemiancoding.com/sketch -->
    <title>Group 23</title>
    <desc>Created with Sketch.</desc>
    <defs></defs>
    <g id="proje-detay" stroke="none" stroke-width="1" fill="none" fill-rule="evenodd">
        <g id="1-anasayfa" transform="translate(-172.000000, -1409.000000)" fill-rule="nonzero" fill="#505050">
            <g id="Group-29-Copy-2" transform="translate(150.000000, 1374.000000)">
                <g id="Group-2">
                    <g id="Group-23" transform="translate(22.000000, 35.000000)">
                        <path d="M16.7498901,8 C16.059942,8 15.4999268,8.53635213 15.4999268,9.19997187 L15.4999268,11.6000563 L14.2499634,11.6000563 C13.5600152,11.6000563 13,12.1364084 13,12.8000281 C13,13.4636479 13.5600152,14 14.2499634,14 L16.7500366,14 C17.4399848,14 18,13.4636479 18,12.8000281 L18,9.19997187 C18,8.53635213 17.4399848,8 16.7498901,8 Z" id="Shape"></path>
                        <path d="M35.1666287,19 L37.4997493,19 L51.4998405,19 L53.8333713,19 C54.4773208,19 55,18.4692458 55,17.8125522 C55,17.1558586 54.4773208,16.6249652 53.8333713,16.6249652 L52.5118393,16.6249652 L50.3214539,1.01892569 C50.2398323,0.434734205 49.7475049,0 49.1664464,0 L39.8330067,0 C39.2531787,0 38.7608513,0.434595046 38.6779992,1.01892569 L36.4877506,16.6249652 L35.1666287,16.6249652 C34.5226792,16.6249652 34,17.1557195 34,17.812413 C34,18.4691066 34.5225425,19 35.1666287,19 Z M48.1549945,2.37503479 L48.6548415,5.93751739 L40.3446116,5.93751739 L40.8444586,2.37503479 L48.1549945,2.37503479 Z M40.0114259,8.31255218 L48.988164,8.31255218 L50.154656,16.6249652 L38.8449339,16.6249652 L40.0114259,8.31255218 Z" id="Shape"></path>
                        <path d="M50.8000422,31 L41.1999578,31 C40.5376115,31 40,31.5462832 40,32.2221904 L40,40.7778096 C40,41.4537168 40.5376115,42 41.1999578,42 L50.8000422,42 C51.4623885,42 52,41.4537168 52,40.7778096 L52,32.2221904 C52,31.5462832 51.4623885,31 50.8000422,31 Z M49.5999437,39.5556192 L42.3999156,39.5556192 L42.3999156,33.4443808 L49.5999437,33.4443808 L49.5999437,39.5556192 Z" id="Shape"></path>
                        <path d="M29.7501464,31 L27.25,31 C26.5600316,31 26,31.5587132 26,32.25 C26,32.9412868 26.5600316,33.5 27.25,33.5 L28.4999999,33.5 L28.4999999,34.75 C28.4999999,35.4412868 29.0600316,36 29.7499999,36 C30.4399683,36 30.9999999,35.4412868 30.9999999,34.75 L30.9999999,32.2498535 C31.0002929,31.5587132 30.4402612,31 29.7501464,31 Z" id="Shape"></path>
                        <path d="M16.75,24 L14.25,24 C13.5600316,24 13,24.5363521 13,25.1999719 C13,25.8635916 13.5600316,26.3999437 14.25,26.3999437 L15.5,26.3999437 L15.5,28.8000281 C15.5,29.4636479 16.0600316,30 16.75,30 C17.4399683,30 18,29.4636479 18,28.8000281 L18,25.1999719 C18.0001465,24.5363521 17.4401148,24 16.75,24 Z" id="Shape"></path>
                        <path d="M72.7667148,26.9499785 L55.5,26.9499785 L35.7667148,26.9499785 L22.2,26.9499785 L22.2,18.375018 L22.2,1.22495337 C22.2,0.547518141 21.647457,2.82153326e-08 20.9667148,2.82153326e-08 L1.23328516,2.82153326e-08 C0.552542969,-0.000143526612 0,0.547518141 0,1.22495337 L0,18.375018 L0,47.7750467 C0,48.4524819 0.552542969,49 1.23328516,49 L20.9665703,49 L35.7665703,49 L55.5,49 L72.7667148,49 C73.447457,49 74,48.4524819 74,47.7750467 L74,37.9749892 L74,28.1749318 C74,27.4974966 73.447457,26.9499785 72.7667148,26.9499785 Z M71.5332852,36.7498923 L56.7332852,36.7498923 L56.7332852,29.3998852 L71.5332852,29.3998852 L71.5332852,36.7498923 Z M2.46671484,2.44990672 L19.7334297,2.44990672 L19.7334297,17.1499211 L2.46671484,17.1499211 L2.46671484,2.44990672 Z M2.46671484,19.5999713 L19.7334297,19.5999713 L19.7334297,28.1749318 L19.7334297,46.5499498 L2.46671484,46.5499498 L2.46671484,19.5999713 Z M22.2,29.3998852 L34.5332852,29.3998852 L34.5332852,46.5499498 L22.2,46.5499498 L22.2,29.3998852 Z M37,29.3998852 L54.2667148,29.3998852 L54.2667148,37.9748457 L54.2667148,46.5499498 L37,46.5499498 L37,29.3998852 Z M71.5332852,46.5499498 L56.7332852,46.5499498 L56.7332852,39.1999426 L71.5332852,39.1999426 L71.5332852,46.5499498 Z" id="Shape"></path>
                        <path d="M60.2499634,34 L67.7500366,34 C68.4399848,34 69,33.3295441 69,32.5 C69,31.6704559 68.4399848,31 67.7500366,31 L60.2499634,31 C59.5600152,31 59,31.6704559 59,32.5 C59,33.3295441 59.5600152,34 60.2499634,34 Z" id="Shape"></path>
                        <path d="M60.2499634,44 L67.7500366,44 C68.4399848,44 69,43.3295441 69,42.5 C69,41.6704559 68.4399848,41 67.7500366,41 L60.2499634,41 C59.5600152,41 59,41.6704559 59,42.5 C59,43.3295441 59.5600152,44 60.2499634,44 Z" id="Shape"></path>
                    </g>
                </g>
            </g>
        </g>
    </g>
</svg>